<svg width="460" height="139" viewBox="0 0 460 139" fill="none" xmlns="http://www.w3.org/2000/svg">
<rect width="460" height="139" rx="4" fill="#F8FAFC"/>
<path d="M20.48 22.944H14.832V28H13.488V16.832H14.832V21.76H20.48V16.832H21.824V28H20.48V22.944ZM25.3125 17.808C25.0352 17.808 24.8325 17.744 24.7045 17.616C24.5872 17.4773 24.5285 17.3013 24.5285 17.088V16.88C24.5285 16.6667 24.5872 16.496 24.7045 16.368C24.8325 16.2293 25.0352 16.16 25.3125 16.16C25.5898 16.16 25.7872 16.2293 25.9045 16.368C26.0325 16.496 26.0965 16.6667 26.0965 16.88V17.088C26.0965 17.3013 26.0325 17.4773 25.9045 17.616C25.7872 17.744 25.5898 17.808 25.3125 17.808ZM24.6725 19.744H25.9525V28H24.6725V19.744ZM28.6725 28V19.744H29.9525V21.088H30.0165C30.2192 20.6187 30.5018 20.2453 30.8645 19.968C31.2378 19.6907 31.7338 19.552 32.3525 19.552C33.2058 19.552 33.8778 19.8293 34.3685 20.384C34.8698 20.928 35.1205 21.7013 35.1205 22.704V28H33.8405V22.928C33.8405 21.4453 33.2165 20.704 31.9685 20.704C31.7125 20.704 31.4618 20.736 31.2165 20.8C30.9818 20.864 30.7685 20.96 30.5765 21.088C30.3845 21.216 30.2298 21.3813 30.1125 21.584C30.0058 21.776 29.9525 22.0053 29.9525 22.272V28H28.6725ZM39.5903 28C39.1423 28 38.8009 27.8773 38.5663 27.632C38.3423 27.376 38.2303 27.0453 38.2303 26.64V20.864H36.8703V19.744H37.6383C37.9156 19.744 38.1023 19.6907 38.1983 19.584C38.3049 19.4667 38.3583 19.2693 38.3583 18.992V17.456H39.5103V19.744H41.3183V20.864H39.5103V26.88H41.1903V28H39.5903ZM48.9809 28C48.5329 28 48.1915 27.8773 47.9569 27.632C47.7329 27.376 47.6209 27.0453 47.6209 26.64V20.864H46.2609V19.744H47.0289C47.3062 19.744 47.4929 19.6907 47.5889 19.584C47.6955 19.4667 47.7489 19.2693 47.7489 18.992V17.456H48.9009V19.744H50.7089V20.864H48.9009V26.88H50.5809V28H48.9809ZM55.8078 28.192C55.2424 28.192 54.7304 28.0907 54.2718 27.888C53.8238 27.6853 53.4344 27.3973 53.1038 27.024C52.7838 26.64 52.5331 26.1867 52.3518 25.664C52.1811 25.1307 52.0958 24.5333 52.0958 23.872C52.0958 23.2213 52.1811 22.6293 52.3518 22.096C52.5331 21.5627 52.7838 21.1093 53.1038 20.736C53.4344 20.352 53.8238 20.0587 54.2718 19.856C54.7304 19.6533 55.2424 19.552 55.8078 19.552C56.3624 19.552 56.8584 19.6533 57.2958 19.856C57.7331 20.0587 58.1064 20.3413 58.4158 20.704C58.7251 21.056 58.9598 21.4773 59.1198 21.968C59.2904 22.4587 59.3758 22.9973 59.3758 23.584V24.192H53.4398V24.576C53.4398 24.928 53.4931 25.2587 53.5998 25.568C53.7171 25.8667 53.8771 26.128 54.0798 26.352C54.2931 26.576 54.5491 26.752 54.8478 26.88C55.1571 27.008 55.5038 27.072 55.8878 27.072C56.4104 27.072 56.8638 26.9493 57.2478 26.704C57.6424 26.4587 57.9464 26.1067 58.1598 25.648L59.0718 26.304C58.8051 26.8693 58.3891 27.328 57.8238 27.68C57.2584 28.0213 56.5864 28.192 55.8078 28.192ZM55.8078 20.624C55.4558 20.624 55.1358 20.688 54.8478 20.816C54.5598 20.9333 54.3091 21.104 54.0958 21.328C53.8931 21.552 53.7331 21.8187 53.6158 22.128C53.4984 22.4267 53.4398 22.7573 53.4398 23.12V23.232H57.9998V23.056C57.9998 22.32 57.7971 21.7333 57.3918 21.296C56.9971 20.848 56.4691 20.624 55.8078 20.624ZM60.2735 28L63.3295 23.84L60.4015 19.744H61.9055L64.0015 22.816H64.0495L66.2255 19.744H67.6495L64.7375 23.744L67.7135 28H66.2095L64.0655 24.768H64.0175L61.6975 28H60.2735ZM71.2309 28C70.7829 28 70.4415 27.8773 70.2069 27.632C69.9829 27.376 69.8709 27.0453 69.8709 26.64V20.864H68.5109V19.744H69.2789C69.5562 19.744 69.7429 19.6907 69.8389 19.584C69.9455 19.4667 69.9989 19.2693 69.9989 18.992V17.456H71.1509V19.744H72.9589V20.864H71.1509V26.88H72.8309V28H71.2309Z" fill="#B8BCCA"/>
</svg>
